<svg width="80" height="80" viewBox="0 0 80 80" fill="none" xmlns="http://www.w3.org/2000/svg">
<path d="M73.3609 49.5312C74.4766 48.2859 75.1562 46.6422 75.1562 44.8438C75.1562 40.9672 72.0016 37.8125 68.125 37.8125H54.4781C55.8297 33.7109 56.4062 28.2688 56.4062 25.9359V23.5938C56.4062 18.425 52.2 14.2188 47.0312 14.2188H44.6875C43.6125 14.2188 42.675 14.95 42.4141 15.9938L41.1375 21.1016C39.3484 28.2547 33.6688 36.1469 27.7906 37.5813C26.7609 34.975 24.2188 33.125 21.25 33.125H7.1875C5.89375 33.125 4.84375 34.175 4.84375 35.4688V77.6562C4.84375 78.95 5.89375 80 7.1875 80H21.25C24.0453 80 26.4641 78.3609 27.5969 75.9922L35.65 78.6766C38.2828 79.5547 41.0266 80 43.8031 80H63.4375C67.3141 80 70.4688 76.8453 70.4688 72.9688C70.4688 72.0547 70.2937 71.1797 69.975 70.3781C72.9563 69.5641 75.1562 66.8312 75.1562 63.5938C75.1562 61.7953 74.4766 60.1516 73.3609 58.9062C74.4766 57.6609 75.1562 56.0172 75.1562 54.2188C75.1562 52.4203 74.4766 50.7766 73.3609 49.5312ZM23.5938 72.9688C23.5938 74.2609 22.5422 75.3125 21.25 75.3125H9.53125V37.8125H21.25C22.5422 37.8125 23.5938 38.8641 23.5938 40.1562V72.9688ZM63.4375 51.875H68.125C69.4172 51.875 70.4688 52.9266 70.4688 54.2188C70.4688 55.5109 69.4172 56.5625 68.125 56.5625H63.4375C62.1437 56.5625 61.0938 57.6125 61.0938 58.9062C61.0938 60.2 62.1437 61.25 63.4375 61.25H68.125C69.4172 61.25 70.4688 62.3016 70.4688 63.5938C70.4688 64.8859 69.4172 65.9375 68.125 65.9375H63.4375C62.1437 65.9375 61.0938 66.9875 61.0938 68.2812C61.0938 69.575 62.1437 70.625 63.4375 70.625C64.7297 70.625 65.7812 71.6766 65.7812 72.9688C65.7812 74.2609 64.7297 75.3125 63.4375 75.3125H43.8031C41.5312 75.3125 39.2859 74.9484 37.1312 74.2297L28.2812 71.2797V42.2781C31.9578 41.5797 35.5563 39.2516 38.8047 35.4406C41.9766 31.7188 44.5484 26.7844 45.6844 22.2391L46.5172 18.9062H47.0312C49.6156 18.9062 51.7188 21.0094 51.7188 23.5938V25.9359C51.7188 29.0828 50.7344 35.1187 49.475 37.8125H44.6875C43.3937 37.8125 42.3438 38.8625 42.3438 40.1562C42.3438 41.45 43.3937 42.5 44.6875 42.5H68.125C69.4172 42.5 70.4688 43.5516 70.4688 44.8438C70.4688 46.1359 69.4172 47.1875 68.125 47.1875H63.4375C62.1437 47.1875 61.0938 48.2375 61.0938 49.5312C61.0938 50.825 62.1437 51.875 63.4375 51.875Z" fill="white"/>
<path d="M16.5625 70.625C17.8569 70.625 18.9062 69.5757 18.9062 68.2812C18.9062 66.9868 17.8569 65.9375 16.5625 65.9375C15.2681 65.9375 14.2188 66.9868 14.2188 68.2812C14.2188 69.5757 15.2681 70.625 16.5625 70.625Z" fill="white"/>
<path d="M49.375 0C48.0806 0 47.0312 1.04937 47.0312 2.34375V7.1875C47.0312 8.48188 48.0806 9.53125 49.375 9.53125C50.6694 9.53125 51.7188 8.48188 51.7188 7.1875V2.34375C51.7188 1.04937 50.6694 0 49.375 0Z" fill="white"/>
<path d="M39.4313 10.3356L36.1167 7.02108C35.2016 6.10577 33.7175 6.10577 32.8022 7.02108C31.8869 7.93639 31.8869 9.4203 32.8022 10.3356L36.1167 13.6501C37.0319 14.5653 38.5161 14.5655 39.4313 13.6501C40.3466 12.7348 40.3466 11.2509 39.4313 10.3356Z" fill="white"/>
<path d="M65.9479 7.02108C65.0327 6.10577 63.5486 6.10577 62.6333 7.02108L59.3188 10.3355C58.4035 11.2508 58.4035 12.7347 59.3188 13.65C60.234 14.5653 61.718 14.5655 62.6333 13.6501L65.9479 10.3356C66.8632 9.4203 66.8632 7.93639 65.9479 7.02108Z" fill="white"/>
</svg>
