<svg width="80" height="80" viewBox="0 0 80 80" fill="none" xmlns="http://www.w3.org/2000/svg">
<g clip-path="url(#clip0)">
<path d="M47.3575 46.6877H32.6512C31.4206 46.6877 30.423 47.6853 30.423 48.916V77.7716C30.423 79.0022 31.4206 79.9998 32.6512 79.9998H47.3575C48.5882 79.9998 49.5858 79.0022 49.5858 77.7716V48.916C49.5858 47.6853 48.5882 46.6877 47.3575 46.6877ZM45.1293 75.5433H34.8795V51.1442H45.1293V75.5433Z" fill="#161314"/>
<path d="M76.5475 29.196H61.7297C60.499 29.196 59.5015 30.1936 59.5015 31.4243V77.7716C59.5015 79.0023 60.499 79.9999 61.7297 79.9999H76.5475C77.7782 79.9999 78.7758 79.0023 78.7758 77.7716V31.4243C78.7758 30.1938 77.7782 29.196 76.5475 29.196ZM74.3193 75.5434H63.9579V33.6525H74.3193V75.5434Z" fill="#161314"/>
<path d="M18.2791 57.4949H3.46127C2.23061 57.4949 1.23303 58.4925 1.23303 59.7231V77.7719C1.23303 79.0025 2.23061 80.0001 3.46127 80.0001H18.2791C19.5098 80.0001 20.5073 79.0025 20.5073 77.7719V59.7231C20.5073 58.4927 19.5098 57.4949 18.2791 57.4949ZM16.0509 75.5436H5.68951V61.9514H16.0509V75.5436Z" fill="#161314"/>
<path d="M78.9986 2.23461C78.6598 1.76759 78.1266 1.48056 77.5502 1.45475L57.2732 0.00636653C56.0426 -0.0859704 54.9701 0.836972 54.8778 2.06742C54.7854 3.29808 55.7082 4.37051 56.9388 4.46285L71.2899 5.4374L44.9065 26.0769L24.741 10.2564C23.8799 9.57443 22.6505 9.62177 21.8442 10.3677L1.12172 30.1988C0.240783 31.0345 0.191309 32.4219 1.0104 33.3184C1.4079 33.8343 2.03101 34.1252 2.68163 34.0983C3.26935 34.09 3.82998 33.8496 4.24134 33.4298L23.5157 14.9353L43.4583 30.6443C44.2723 31.296 45.4296 31.296 46.2435 30.6443L74.7654 8.44975L73.6507 22.2888C73.6452 23.4987 74.5632 24.5132 75.7677 24.6283H75.879C77.0276 24.6341 77.9923 23.7657 78.1072 22.6229L79.5556 3.79431C79.6373 3.21449 79.4292 2.63146 78.9986 2.23461Z" fill="#161314"/>
</g>
<defs>
<clipPath id="clip0">
<rect width="80" height="80" fill="white"/>
</clipPath>
</defs>
</svg>
