<svg width="80" height="80" viewBox="0 0 80 80" fill="none" xmlns="http://www.w3.org/2000/svg">
<g clip-path="url(#clip0)">
<path d="M69.1111 30.9682V29.1114C69.1111 13.0216 56.0922 0.000976562 40.0007 0.000976562C23.9492 0.000976562 10.8903 13.0599 10.8903 29.1114V30.9682C4.50521 32.7788 -0.372411 38.8764 0.0231945 46.2471C0.4508 54.2134 7.13343 60.445 14.9966 60.445C18.8716 60.445 22.0133 57.3177 22.0133 53.4403V37.4022C22.0133 33.7318 19.1828 30.7056 15.5961 30.4221V29.1115C15.5961 15.6548 26.544 4.70699 40.0007 4.70699C53.4897 4.70699 64.4053 15.6211 64.4053 29.1115V30.4217C60.8227 30.7013 57.988 33.7292 57.988 37.4023V53.4405C57.988 57.1104 60.8057 60.1167 64.4053 60.4185C64.4053 66.7871 59.4185 71.2164 53.8249 71.2164H48.7031C47.7617 68.831 45.4353 67.138 42.7194 67.138H37.2816C33.7355 67.138 30.8503 70.0232 30.8503 73.5693C30.8503 77.1155 33.7355 80.0007 37.2816 80.0007H42.7194C45.4353 80.0007 47.7617 78.3077 48.7031 75.9223H53.8248C62.2536 75.9223 69.1109 69.0643 69.1109 60.6345V59.8629C75.1148 58.1324 79.6301 52.7323 79.978 46.2473C80.3724 38.9018 75.5184 32.7854 69.1111 30.9682ZM17.3075 37.4022V53.4403C17.3075 54.629 16.3936 55.7672 14.8148 55.7373C9.44291 55.6319 5.00968 51.3525 4.72215 45.9951C4.40199 40.032 9.12495 35.1041 15.0234 35.1041H15.0637C16.3009 35.1088 17.3075 36.1397 17.3075 37.4022ZM42.7196 75.2947H37.2818C36.3304 75.2947 35.5563 74.5205 35.5563 73.5692C35.5563 72.6178 36.3304 71.8437 37.2818 71.8437H42.7196C43.6725 71.8437 44.4473 72.6203 44.4449 73.5737C44.4422 74.523 43.6694 75.2947 42.7196 75.2947ZM75.2791 45.9951C74.9915 51.3525 70.5583 55.6319 65.1866 55.7373C63.6366 55.7686 62.6937 54.6545 62.6937 53.4403V37.4022C62.6937 36.1397 63.7003 35.1088 64.9285 35.1041H64.9776C70.8771 35.1041 75.5992 40.0326 75.2791 45.9951Z" fill="white"/>
<path d="M41.6636 58.4236L52.5287 47.5587C55.9133 44.1741 55.9136 38.696 52.5287 35.3113C49.4153 32.1977 44.02 31.5736 40 35.5924C36.0345 31.628 30.6317 32.1507 27.4712 35.3111C24.0865 38.6959 24.0863 44.1738 27.4712 47.5587L38.3363 58.4236C39.2549 59.3423 40.7447 59.3425 41.6636 58.4236ZM30.7986 38.6386C32.3404 37.097 34.8491 37.0968 36.391 38.6386L38.336 40.5835C39.2547 41.5024 40.7446 41.5024 41.6635 40.5835L43.6084 38.6386C45.1504 37.0968 47.6589 37.0967 49.2008 38.6386C50.7462 40.1839 50.7466 42.6853 49.2008 44.2311L39.9996 53.4321L30.7984 44.2311C29.2532 42.6858 29.253 40.1843 30.7986 38.6386Z" fill="white"/>
</g>
<defs>
<clipPath id="clip0">
<rect width="80" height="80" fill="white"/>
</clipPath>
</defs>
</svg>
