<svg width="80" height="80" viewBox="0 0 80 80" fill="none" xmlns="http://www.w3.org/2000/svg">
<path d="M40 0C17.9446 0 0 17.9446 0 40C0 62.0569 17.9446 80 40 80C62.0569 80 80 62.0569 80 40C80 17.9446 62.0569 0 40 0ZM66.7908 32.9446L60.6369 39.0985C60.0354 39.7 59.2492 40 58.4615 40C57.6738 40 56.8877 39.7 56.2862 39.0985C55.0846 37.8969 55.0846 35.9492 56.2862 34.7477L57.1877 33.8462H52.3077C47.2169 33.8462 43.0769 37.9862 43.0769 43.0769V64.6154C43.0769 66.3139 41.6985 67.6923 40 67.6923C38.3015 67.6923 36.9231 66.3139 36.9231 64.6154V43.0769C36.9231 37.9862 32.7831 33.8462 27.6923 33.8462H22.8123L23.7138 34.7477C24.9154 35.9492 24.9154 37.8969 23.7138 39.0985C23.1138 39.7 22.3262 40 21.5385 40C20.7508 40 19.9631 39.7 19.3631 39.0985L13.2092 32.9446C12.0077 31.7431 12.0077 29.7954 13.2092 28.5938L19.3631 22.44C20.5631 21.2385 22.5138 21.2385 23.7138 22.44C24.9154 23.6415 24.9154 25.5892 23.7138 26.7908L22.8123 27.6923H27.6923C32.7277 27.6923 37.1923 30.1338 40 33.8846C42.8077 30.1338 47.2738 27.6923 52.3077 27.6923H57.1877L56.2862 26.7908C55.0846 25.5892 55.0846 23.6415 56.2862 22.44C57.4877 21.2385 59.4354 21.2385 60.6369 22.44L66.7908 28.5938C67.9923 29.7954 67.9923 31.7431 66.7908 32.9446Z" fill="white"/>
</svg>
