<svg width="80" height="50" viewBox="0 0 80 50" fill="none" xmlns="http://www.w3.org/2000/svg">
<path d="M63.1667 34.2825C61.5967 31.0092 55.98 26.4657 50.5534 22.0757C47.5267 19.629 44.6667 17.3158 42.8434 15.4925C42.3867 15.0325 41.7034 14.8858 41.1001 15.1025C39.9768 15.5092 39.2834 15.8225 38.7368 16.0658C37.9036 16.439 37.6236 16.5658 36.5001 16.679C36.0034 16.729 35.5568 16.9958 35.2801 17.409C32.9234 20.9323 30.4834 20.6323 28.8534 20.0857C28.3334 19.9125 28.2401 19.689 28.1901 19.4757C27.8401 18.0125 29.5968 14.6058 31.8734 12.329C37.2901 6.90904 40.0834 5.55232 45.9834 8.18904C52.6767 11.1823 59.3834 13.5258 59.4501 13.549C60.3268 13.8523 61.2701 13.3923 61.5734 12.5223C61.8734 11.6523 61.4167 10.7023 60.5467 10.399C60.48 10.3758 53.9067 8.07904 47.3467 5.14232C39.7034 1.7256 35.51 3.9756 29.52 9.96904C27.24 12.249 24.1433 16.8623 24.9433 20.2457C25.2865 21.6857 26.3 22.7525 27.8065 23.249C31.5833 24.4957 35.0298 23.3023 37.5965 19.8958C38.6565 19.7325 39.2333 19.4925 40.0998 19.1025C40.4131 18.9625 40.7798 18.7992 41.2665 18.6025C43.1732 20.3925 45.7465 22.4757 48.4565 24.6657C53.3565 28.629 58.9132 33.1225 60.1632 35.7225C60.78 37.0057 60.1165 37.8425 59.6665 38.2257C59.0065 38.7925 58.1032 38.9725 57.6132 38.629C57.0732 38.259 56.37 38.2357 55.8132 38.569C55.2532 38.9023 54.94 39.5323 55.01 40.179C55.1232 41.239 54.1532 41.8457 53.7332 42.0557C52.6665 42.5957 51.5532 42.5025 51.1365 42.1157C50.6698 41.6825 49.9998 41.5557 49.4065 41.7757C48.8132 41.999 48.3998 42.5457 48.3398 43.179C48.2398 44.2723 47.4298 45.3223 46.3731 45.7323C45.8631 45.9256 45.1231 46.0423 44.4598 45.4356C44.0465 45.0623 43.4731 44.9189 42.9365 45.0489C42.3932 45.1821 41.9565 45.5756 41.7665 46.0989C41.7032 46.2656 41.5598 46.6656 39.9998 46.6656C38.8898 46.6656 36.8931 45.9156 35.9165 45.2689C34.7465 44.4989 27.4098 39.0256 21.0733 33.7189C20.1833 32.9689 18.6433 31.3621 17.2833 29.9421C16.0765 28.6821 14.9733 27.5389 14.4065 27.0589C13.6965 26.4589 12.6465 26.5489 12.0565 27.2556C11.4633 27.9589 11.5498 29.0123 12.2533 29.6056C12.77 30.0423 13.77 31.0989 14.8733 32.2489C16.36 33.8021 17.8965 35.4089 18.93 36.2756C25.1367 41.4723 32.5967 47.0823 34.0833 48.0589C35.31 48.8656 37.9533 49.9989 40 49.9989C41.6432 49.9989 42.9067 49.6221 43.7832 48.8856C44.9565 49.3423 46.29 49.3456 47.5732 48.8456C49.09 48.2589 50.3365 47.0756 51.0432 45.6423C52.3565 45.9223 53.86 45.7256 55.2265 45.039C56.5632 44.3657 57.5298 43.3357 58.0098 42.1323C59.3365 42.2023 60.7031 41.7323 61.8331 40.7623C63.7467 39.1257 64.2732 36.5792 63.1667 34.2825Z" fill="white"/>
<path d="M33.3335 6.66565H18.3335C17.4135 6.66565 16.6667 7.41237 16.6667 8.33237C16.6667 9.25237 17.4135 9.99908 18.3335 9.99908H33.3335C34.2535 9.99908 35.0002 9.25237 35.0002 8.33237C35.0002 7.41237 34.2535 6.66565 33.3335 6.66565Z" fill="white"/>
<path d="M68.0499 30.7356C67.5332 29.9723 66.4999 29.7623 65.7366 30.2823L60.8633 33.5556C60.1001 34.0689 59.8966 35.1056 60.4101 35.8689C60.7333 36.3456 61.2601 36.6056 61.7968 36.6056C62.1135 36.6056 62.4368 36.5156 62.7235 36.3223L67.5968 33.0491C68.3599 32.5356 68.5632 31.499 68.0499 30.7356Z" fill="white"/>
<path d="M57.7033 38.6894C56.51 37.7494 51.1733 32.2861 47.8733 28.8461C47.2366 28.1794 46.18 28.1561 45.5166 28.7961C44.8499 29.4328 44.8299 30.4894 45.4666 31.1528C46.3233 32.0461 53.8799 39.9228 55.6366 41.3095C55.9399 41.5495 56.3066 41.6662 56.6666 41.6662C57.1566 41.6662 57.6466 41.4462 57.9799 41.0295C58.55 40.3094 58.4267 39.2594 57.7033 38.6894Z" fill="white"/>
<path d="M51.0432 42.0327C49.0465 40.4359 44.0299 35.1059 42.8965 33.8727C42.2698 33.1927 41.2198 33.1527 40.5398 33.7727C39.8631 34.3959 39.8165 35.4527 40.4398 36.1294C40.4998 36.1927 46.4865 42.6561 48.9598 44.6361C49.2665 44.8794 49.6365 44.9994 49.9998 44.9994C50.4865 44.9994 50.9731 44.7826 51.3031 44.3761C51.8766 43.6559 51.7599 42.6059 51.0432 42.0327Z" fill="white"/>
<path d="M44.4097 45.389C42.033 43.3857 37.1697 38.209 36.2197 37.1923C35.5897 36.519 34.533 36.4823 33.863 37.1123C33.1897 37.7423 33.1563 38.7956 33.783 39.469C35.1497 40.9323 39.803 45.8657 42.2597 47.939C42.573 48.2023 42.953 48.3323 43.333 48.3323C43.8063 48.3323 44.2797 48.129 44.6097 47.739C45.203 47.0323 45.113 45.9823 44.4097 45.389Z" fill="white"/>
<path d="M19.48 3.78898C16.6233 1.08227 5.2 0.205547 1.76672 0.00226572C1.29344 -0.0210155 0.856718 0.135548 0.523437 0.452266C0.19 0.765547 0 1.20555 0 1.66555V31.6655C0 32.5855 0.746718 33.3322 1.66672 33.3322H11.6667C12.3867 33.3322 13.0267 32.869 13.25 32.1822C13.4933 31.4355 19.2367 13.809 19.9933 5.14226C20.0367 4.63554 19.85 4.13554 19.48 3.78898ZM10.45 29.999H3.33328V3.45226C8.69 3.87554 14.47 4.79555 16.57 5.81554C15.6867 13.1155 11.69 26.0855 10.45 29.999Z" fill="white"/>
<path d="M78.3333 3.33252C65.2466 3.33252 57.9866 6.68252 57.6834 6.82252C57.2501 7.0258 56.9266 7.40252 56.7934 7.85923C56.6601 8.31595 56.7266 8.80595 56.9766 9.21252C59.0366 12.5292 65.4866 30.9492 66.7266 35.4425C66.9266 36.1658 67.5834 36.6658 68.3334 36.6658H78.3333C79.2533 36.6658 80.0001 35.9191 80.0001 34.9991V4.99908C80.0001 4.0758 79.2533 3.33252 78.3333 3.33252ZM76.6668 33.3325H69.5801C68.0001 28.1858 63.3334 14.7658 60.7301 9.21924C63.2734 8.35595 68.7368 6.87252 76.6668 6.68596V33.3325Z" fill="white"/>
</svg>
