<svg width="80" height="81" viewBox="0 0 80 81" fill="none" xmlns="http://www.w3.org/2000/svg">
<path d="M0.842641 56.9866L9.19249 61.4733C9.43471 61.603 9.69259 61.6639 9.94877 61.6639C10.5191 61.6639 11.0707 61.3584 11.3597 60.8216L12.4814 58.7348L14.6784 61.1561C14.6784 61.1561 14.9683 61.4649 15.4614 61.9723L14.1768 63.7403C12.8066 65.624 13.2253 68.2716 15.1096 69.6418V69.6427C15.6969 70.0696 16.3779 70.284 17.0791 70.3704C17.0877 70.4978 17.0816 70.6245 17.1018 70.7521C17.2783 71.866 17.8783 72.8458 18.7909 73.509C18.7909 73.5098 18.7909 73.5098 18.7925 73.5105C19.5221 74.0395 20.3815 74.3176 21.2659 74.3176C21.4877 74.3176 21.7127 74.2996 21.9361 74.2644C22.0546 74.2456 22.1644 74.2033 22.2797 74.1751C22.5721 74.8052 23.0057 75.3789 23.6065 75.8153C24.3548 76.3582 25.2235 76.62 26.0846 76.62C26.151 76.62 26.2157 76.6003 26.282 76.5972C26.5341 77.5199 27.0687 78.3308 27.8532 78.9011V78.9019C28.5829 79.4324 29.4438 79.7098 30.3282 79.7098C30.55 79.7098 30.7751 79.6925 30.9985 79.6565C32.1141 79.4801 33.0922 78.8793 33.7547 77.9668L34.2873 77.2342C35.7073 78.0043 37.0497 78.6105 38.2875 79.0332C39.1844 79.3402 40.0749 79.5972 40.9312 79.798C41.514 79.9348 42.1031 80.0019 42.6859 80.0019C44.6921 80.0019 46.6342 79.2082 48.1061 77.7371L48.8521 76.9915C49.4024 77.2132 49.9732 77.3371 50.542 77.3371C51.9795 77.3371 53.3795 76.6536 54.2513 75.4192C54.6725 74.823 54.9191 74.1331 55.0182 73.4207C55.1877 73.4388 55.3551 73.4903 55.5247 73.4903C57.0451 73.4903 58.5372 72.7668 59.4669 71.4317C60.1233 70.4867 60.3917 69.3291 60.2725 68.1911C61.3773 67.9717 62.4098 67.385 63.156 66.445C63.9528 65.4419 64.2934 64.1904 64.1168 62.9217C64.0622 62.5297 63.9455 62.1607 63.8004 61.8051C65.3094 60.9854 66.5548 59.8243 67.4428 58.8049L68.7058 61.0873C68.998 61.6146 69.5433 61.9122 70.1074 61.9122C70.3699 61.9122 70.6355 61.8482 70.8809 61.7123L79.1745 57.1233C79.9479 56.6952 80.2275 55.7217 79.7994 54.9492L66.4699 30.8565C66.2653 30.4846 65.92 30.2103 65.5121 30.0932C65.1028 29.9744 64.6653 30.0245 64.295 30.2307L55.9998 34.8204C55.6294 35.0259 55.3545 35.3705 55.2372 35.7782C55.1201 36.1861 55.17 36.6236 55.3747 36.9955L56.3381 38.7366L52.6248 39.3767C48.1748 37.547 41.8405 37.5923 37.2327 37.9688C34.9549 38.154 32.8532 39.0965 31.2083 40.6196H28.3954C27.0391 40.6196 25.7127 40.243 24.5579 39.5314L23.24 38.7189L24.0971 37.1243C24.2986 36.7501 24.3423 36.3118 24.2205 35.9056C24.0971 35.4994 23.819 35.158 23.4455 34.9572L15.0955 30.4698C14.319 30.0502 13.3471 30.3431 12.9284 31.1213L0.191094 54.8194C-0.0104384 55.1937 -0.05426 55.6319 0.0676944 56.0382C0.191093 56.4444 0.469193 56.7858 0.842641 56.9866ZM16.7643 65.6217L19.8518 61.3733C20.0112 61.1521 20.2487 61.0068 20.519 60.9639C20.7939 60.9194 21.0626 60.9866 21.2845 61.1482C21.5048 61.3084 21.6501 61.5459 21.694 61.8162C21.7357 62.084 21.6705 62.3519 21.5142 62.572L19.8197 64.9054L18.4221 66.8279C18.2627 67.0489 18.0252 67.1942 17.7549 67.2372C17.4784 67.2779 17.2127 67.213 16.9908 67.0544C16.5347 66.7215 16.4331 66.0787 16.7643 65.6217ZM20.6721 70.9207V70.92C20.4502 70.759 20.3049 70.5215 20.2627 70.2512C20.219 69.981 20.2846 69.7106 20.4471 69.4887L23.3556 65.4835L24.1002 64.4592C24.1016 64.4573 24.1024 64.4551 24.1037 64.4532L25.672 62.2935C26.0064 61.8342 26.6486 61.7342 27.1049 62.0662C27.3266 62.2272 27.4735 62.4654 27.5158 62.7357C27.5579 63.006 27.4938 63.2764 27.3329 63.4982L27.02 63.9288C27.0191 63.9298 27.0182 63.9307 27.0173 63.9318L22.9162 69.5756L22.1033 70.6942C21.9423 70.9153 21.7065 71.0606 21.4361 71.1036C21.1642 71.1442 20.8924 71.081 20.6721 70.9207ZM25.4877 73.2262C25.0298 72.8942 24.9282 72.2513 25.2595 71.7942L25.5872 71.3431L29.6068 65.811C29.7692 65.5904 30.0058 65.4449 30.2751 65.4021C30.3297 65.3935 30.3845 65.3896 30.4376 65.3896C30.6532 65.3896 30.861 65.4567 31.0376 65.5857C31.2594 65.7466 31.4063 65.9849 31.4485 66.2552C31.4907 66.5256 31.4266 66.7958 31.2656 67.0177L30.0125 68.7426C30.0102 68.7458 30.0071 68.7482 30.0048 68.7513L26.9204 72.9989C26.5845 73.4575 25.9438 73.5582 25.4877 73.2262ZM30.497 76.4964C30.2329 76.5379 29.9579 76.4738 29.7344 76.3137C29.5125 76.152 29.3672 75.9145 29.3251 75.6434C29.2814 75.3731 29.347 75.1027 29.5095 74.8808L32.5953 70.6317C32.7547 70.4106 32.9923 70.2653 33.2625 70.2224C33.5391 70.1794 33.8063 70.2458 34.0266 70.4059C34.4844 70.738 34.586 71.381 34.2547 71.838L31.1657 76.0863C31.0048 76.3082 30.7672 76.4535 30.497 76.4964ZM64.445 33.8056L76.2245 55.0983L70.7309 58.1381L58.9497 36.8455L64.445 33.8056ZM37.4922 41.1578C43.7046 40.654 48.7686 41.1251 51.7639 42.4907C52.056 42.625 52.3827 42.6673 52.6998 42.6109L57.9782 41.7007L65.7756 55.792C64.9357 56.9308 63.3542 58.6646 61.5798 59.327L42.0204 45.2609C42.0175 45.2588 42.0145 45.2568 42.0116 45.2547L41.978 45.2305C41.9249 45.1923 41.8626 45.184 41.8067 45.1532C41.6852 45.0858 41.5663 45.0165 41.4292 44.9826C41.3073 44.9523 41.1851 44.96 41.0614 44.9586C40.984 44.9578 40.9118 44.933 40.8327 44.9437L38.0687 45.3149C35.9609 45.5984 34.0359 46.7492 32.786 48.4726C31.7344 49.9242 29.9735 50.5241 28.3392 50.1437L32.3032 44.2266C33.4938 42.4477 35.386 41.329 37.4922 41.1578ZM22.8784 42.2547C24.5377 43.2781 26.4455 43.8195 28.3954 43.8195H28.7235L24.6376 49.9195C24.1501 50.6476 24.3392 51.6319 25.0611 52.1288C26.3721 53.0295 27.8548 53.4639 29.322 53.4639C31.6344 53.4639 33.9047 52.3827 35.3766 50.3499C36.1141 49.3336 37.2515 48.6539 38.4953 48.4867L40.626 48.2005L60.3622 62.3936C60.6857 62.6255 60.8935 62.9693 60.9481 63.363C61.0028 63.756 60.8966 64.1443 60.6497 64.4552C60.1153 65.1271 59.1607 65.2982 58.4279 64.8459L58.0436 64.6092L58.0435 64.6091L57.5953 64.333L53.2076 61.6303C53.2073 61.6302 53.207 61.63 53.2067 61.6299L47.2951 57.9889C46.5437 57.5249 45.5577 57.76 45.0937 58.5123C44.6311 59.2646 44.864 60.2506 45.617 60.7139L56.3654 67.3341C56.742 67.5661 56.9997 67.9333 57.0904 68.3676C57.181 68.802 57.0919 69.2411 56.8388 69.6044C56.3544 70.3005 55.4091 70.4942 54.6888 70.0513L53.0677 69.0478C53.0176 69.0141 52.9764 68.9698 52.9248 68.938L44.0374 63.4685C43.2811 63.003 42.2968 63.2396 41.8358 63.9927C41.3734 64.7451 41.6077 65.7303 42.3593 66.1935L45.4261 68.0809L51.3111 71.7234C51.5883 71.92 51.7872 72.1973 51.8561 72.5332C51.9311 72.8988 51.8529 73.2676 51.6389 73.5723C51.2686 74.0958 50.5763 74.2848 49.992 74.0176L44.3322 71.4352L40.3718 69.5576C39.5718 69.1786 38.6187 69.5193 38.2406 70.3177C37.8609 71.1161 38.2015 72.07 38.9999 72.4481L45.6905 75.6207C44.592 76.6231 43.103 77.0207 41.6609 76.6824C40.9077 76.5058 40.1203 76.2777 39.3219 76.0051C38.3685 75.6801 37.3073 75.1789 36.2024 74.6003L36.8438 73.7183C38.2109 71.8333 37.7922 69.1857 35.9079 67.8169C35.5003 67.5207 35.048 67.316 34.5771 67.1816C34.6632 66.7153 34.6858 66.2358 34.6095 65.7536C34.4328 64.6397 33.8313 63.6599 32.9188 62.9974C32.2508 62.5115 31.4709 62.2422 30.6675 62.1994C30.484 61.0996 29.8886 60.1334 28.9861 59.478C27.4869 58.3833 25.5032 58.4474 24.0608 59.4717C23.8076 59.1305 23.5176 58.815 23.1643 58.5584C22.2517 57.8952 21.1345 57.6248 20.019 57.8037C18.9653 57.9707 18.0415 58.5269 17.3829 59.3573C17.1627 59.1281 17.0315 58.9889 17.0315 58.9889L14.0884 55.7452L21.7226 41.5417L22.8784 42.2547ZM14.9894 34.0455L20.5205 37.0181L9.29879 57.8975L3.76762 54.9248L14.9894 34.0455Z" fill="white"/>
<path d="M39.3849 33.1073C39.5817 33.1894 39.791 33.2308 40.0005 33.2308C40.2099 33.2308 40.4192 33.1894 40.6161 33.1073C41.3411 32.805 58.3752 25.534 58.3752 11.0357C58.3752 4.95065 53.4253 0 47.3395 0C44.6004 0 42.0083 1.00236 40.0005 2.79677C37.9927 1.00236 35.4006 0 32.6615 0C26.5757 0 21.6257 4.95065 21.6257 11.0357C21.6257 25.534 38.6599 32.805 39.3849 33.1073ZM32.6615 3.19995C35.0365 3.19995 37.2583 4.26323 38.7568 6.11626C39.3629 6.86785 40.638 6.86785 41.2441 6.11626C42.7426 4.26323 44.9644 3.19995 47.3395 3.19995C51.6596 3.19995 55.1752 6.71472 55.1752 11.0357C55.1752 21.9762 42.9191 28.4793 40.0005 29.8722C37.0818 28.4793 24.8257 21.9762 24.8257 11.0357C24.8257 6.71472 28.3413 3.19995 32.6615 3.19995Z" fill="white"/>
</svg>
