<svg width="16" height="17" viewBox="0 0 16 17" fill="none" xmlns="http://www.w3.org/2000/svg">
<path d="M15.5815 14.8519C15.5414 14.8894 15.4577 14.9528 15.4001 14.9951C14.356 15.7825 12.7508 16.7235 11.2016 16.653C8.60764 16.5334 5.15999 13.0327 4.16502 11.9624C3.17037 10.8917 -0.0693594 7.19768 0.00113266 4.60435C0.0118035 4.17202 0.102667 3.71382 0.27146 3.24301C0.661107 2.1562 1.40224 1.17514 1.94775 0.552025C1.94775 0.552025 2.06189 0.41783 2.11687 0.366093C2.25753 0.235779 2.46286 0.132629 2.7445 0.0508194C2.8884 0.00910568 3.04005 5.14984e-05 3.14159 5.14984e-05C3.25476 5.14984e-05 3.474 0.0113678 3.67351 0.085741C3.94643 0.187599 4.14173 0.304331 4.27302 0.444023C4.36906 0.547497 6.20088 2.8857 6.21123 2.90058L6.22287 2.91836C6.3202 3.04512 6.39619 3.17737 6.4489 3.31189C6.58697 3.66435 6.59247 4.05464 6.46506 4.41131C6.3839 4.63798 6.24971 4.84202 6.07962 4.99949L5.21949 5.80304C5.13865 5.87838 5.0549 6.0184 5.04293 6.06787C5.03323 6.11993 5.03065 6.15615 5.03 6.17943L10.0417 11.5724C10.054 11.5853 10.066 11.5918 10.0744 11.5954C10.0821 11.5928 10.0889 11.5895 10.0941 11.5879C10.1342 11.5682 10.2616 11.4751 10.3877 11.3587L11.2485 10.5635C11.7009 10.1428 12.4045 10.0384 12.9532 10.3061C13.1489 10.4015 13.295 10.5322 13.3639 10.5926L13.4027 10.624C13.4205 10.6395 15.5809 12.6081 15.662 12.6964C15.8654 12.9153 15.9754 13.26 15.9986 13.7499C16.0116 14.0222 15.9314 14.3636 15.8082 14.5618C15.7283 14.6892 15.6539 14.7846 15.5815 14.8519ZM14.9597 13.3667C14.8478 13.2564 12.8853 11.4647 12.7825 11.3709L12.7026 11.305C12.6726 11.2781 12.6018 11.2151 12.5267 11.1782C12.3301 11.0825 12.074 11.12 11.9069 11.2752L11.0451 12.0713C10.9445 12.1645 10.6872 12.3908 10.4728 12.4807C10.3298 12.5402 10.2053 12.5683 10.0608 12.5687C9.78466 12.559 9.52727 12.4419 9.33293 12.2356L4.27075 6.78831C4.07836 6.58104 4.01692 6.27967 4.08838 5.89229C4.14368 5.59286 4.37003 5.26853 4.55693 5.09391L5.41868 4.28907C5.47656 4.2354 5.52247 4.16426 5.55158 4.08407C5.59943 3.9502 5.59717 3.79757 5.54543 3.66564C5.51536 3.58868 5.46524 3.52466 5.44875 3.50364C5.43323 3.48359 5.42191 3.46742 5.41286 3.45287C5.23921 3.22878 3.65896 1.21814 3.56713 1.10917C3.56648 1.10885 3.51313 1.06131 3.33431 0.994378C3.30909 0.985001 3.23472 0.970126 3.14191 0.970126C3.07498 0.970126 3.03132 0.977564 3.01548 0.982414C2.84216 1.03286 2.78137 1.07457 2.78007 1.07457C2.74871 1.10594 2.69471 1.17126 2.68533 1.18225C2.18768 1.75104 1.52318 2.62669 1.18495 3.57057C1.05108 3.94373 0.979291 4.29942 0.971207 4.62925C0.923027 6.40093 3.0449 9.3312 4.87608 11.3017C6.70694 13.2726 9.47456 15.6024 11.2462 15.6839C12.5235 15.7434 13.8981 14.9127 14.8054 14.2288L14.8404 14.2026C14.8611 14.1874 14.8999 14.1599 14.9167 14.1457C14.9396 14.1214 14.9619 14.0852 14.9801 14.0564C15.002 14.0134 15.0331 13.8799 15.0289 13.7965C15.015 13.51 14.9636 13.3774 14.9597 13.3667Z" fill="#FAFAFA"/>
</svg>
