<svg width="80" height="80" viewBox="0 0 80 80" fill="none" xmlns="http://www.w3.org/2000/svg">
<path d="M14.8848 72.6005C6.49628 71.5728 0 64.4238 0 55.7576C0 46.3855 7.59759 38.7879 16.9697 38.7879H18.1818C18.8513 38.7879 19.3939 39.3306 19.3939 40C19.3939 40.6694 18.8513 41.2121 18.1818 41.2121H16.9697C8.93646 41.2121 2.42424 47.7243 2.42424 55.7576C2.42424 63.4727 8.43089 69.7849 16.0228 70.2727L13.5061 66.0782C13.1616 65.5042 13.3478 64.7595 13.9218 64.4151C14.4959 64.0707 15.2404 64.2568 15.5848 64.8309L19.2212 70.8915C19.5334 71.4117 19.4128 72.0827 18.939 72.4617L12.8784 77.3102C12.3557 77.7284 11.5929 77.6437 11.1747 77.1209C10.7565 76.5982 10.8413 75.8353 11.364 75.4171L14.8848 72.6005ZM65.1152 41.0853L68.636 43.902C69.1587 44.3202 69.2435 45.083 68.8253 45.6058C68.4071 46.1285 67.6443 46.2132 67.1216 45.795L61.061 40.9465C60.5872 40.5675 60.4666 39.8966 60.7788 39.3763L64.4152 33.3157C64.7596 32.7417 65.5041 32.5555 66.0782 32.8999C66.6522 33.2444 66.8384 33.989 66.4939 34.5631L63.9772 38.7575C71.5691 38.2697 77.5758 31.9575 77.5758 24.2424C77.5758 16.2092 71.0635 9.69697 63.0303 9.69697H61.8182C61.1487 9.69697 60.6061 9.15428 60.6061 8.48485C60.6061 7.81542 61.1487 7.27273 61.8182 7.27273H63.0303C72.4024 7.27273 80 14.8703 80 24.2424C80 32.9087 73.5037 40.0576 65.1152 41.0853ZM31.5152 0H48.4848C51.832 0 54.5455 2.71343 54.5455 6.06061V10.9091C54.5455 14.2563 51.832 16.9697 48.4848 16.9697H31.5152C28.168 16.9697 25.4545 14.2563 25.4545 10.9091V6.06061C25.4545 2.71343 28.168 0 31.5152 0ZM31.5152 2.42424C29.5068 2.42424 27.8788 4.0523 27.8788 6.06061V10.9091C27.8788 12.9174 29.5068 14.5455 31.5152 14.5455H48.4848C50.4932 14.5455 52.1212 12.9174 52.1212 10.9091V6.06061C52.1212 4.0523 50.4932 2.42424 48.4848 2.42424H31.5152ZM31.5152 63.0303H48.4848C51.832 63.0303 54.5455 65.7437 54.5455 69.0909V73.9394C54.5455 77.2866 51.832 80 48.4848 80H31.5152C28.168 80 25.4545 77.2866 25.4545 73.9394V69.0909C25.4545 65.7437 28.168 63.0303 31.5152 63.0303ZM31.5152 65.4545C29.5068 65.4545 27.8788 67.0826 27.8788 69.0909V73.9394C27.8788 75.9477 29.5068 77.5758 31.5152 77.5758H48.4848C50.4932 77.5758 52.1212 75.9477 52.1212 73.9394V69.0909C52.1212 67.0826 50.4932 65.4545 48.4848 65.4545H31.5152ZM31.5152 31.5152H48.4848C51.832 31.5152 54.5455 34.2286 54.5455 37.5758V42.4242C54.5455 45.7714 51.832 48.4848 48.4848 48.4848H31.5152C28.168 48.4848 25.4545 45.7714 25.4545 42.4242V37.5758C25.4545 34.2286 28.168 31.5152 31.5152 31.5152ZM31.5152 33.9394C29.5068 33.9394 27.8788 35.5675 27.8788 37.5758V42.4242C27.8788 44.4325 29.5068 46.0606 31.5152 46.0606H48.4848C50.4932 46.0606 52.1212 44.4325 52.1212 42.4242V37.5758C52.1212 35.5675 50.4932 33.9394 48.4848 33.9394H31.5152Z" fill="white"/>
</svg>
