<svg width="80" height="80" viewBox="0 0 80 80" fill="none" xmlns="http://www.w3.org/2000/svg">
<g clip-path="url(#clip0)">
<path d="M79.906 5.97241C79.7328 2.7946 77.2054 0.267569 74.0276 0.0941312C67.6154 -0.256181 55.0679 0.0846002 43.0698 6.29038C36.9534 9.45413 30.4846 14.818 25.3223 21.0068C25.2587 21.083 25.1968 21.1598 25.1337 21.2362L13.4181 22.1412C11.4896 22.2902 9.77198 23.301 8.70542 24.9141L0.712607 37.0035C-0.0962989 38.2269 -0.224893 39.758 0.368389 41.0991C0.961826 42.4404 2.1812 43.3751 3.63042 43.5996L13.5009 45.1283C13.466 45.3202 13.431 45.5119 13.399 45.7038C13.0704 47.6694 13.7217 49.6904 15.1414 51.1099L28.8901 64.8588C30.0671 66.0359 31.6576 66.6848 33.2873 66.6848C33.6229 66.6848 33.9604 66.6571 34.2964 66.601C34.4882 66.569 34.68 66.534 34.8718 66.4991L36.4006 76.3698C36.6251 77.819 37.5598 79.0385 38.9007 79.6318C39.4587 79.8787 40.0492 80.0005 40.637 80.0005C41.4625 80.0004 42.2821 79.7601 42.9965 79.2877L55.0859 71.2948C56.6992 70.228 57.7098 68.5104 57.8585 66.5821L58.7635 54.8666C58.84 54.8035 58.9168 54.7416 58.9931 54.678C65.182 49.5157 70.546 43.0469 73.7096 36.9304C79.9157 24.9318 80.2559 12.3841 79.906 5.97241ZM52.5007 67.3844L40.9365 75.0302L39.4465 65.4107C44.334 63.9737 49.1689 61.6721 53.775 58.5888L53.1854 66.2209C53.1487 66.6969 52.899 67.1212 52.5007 67.3844ZM32.2046 61.5443L18.4557 47.7954C18.1049 47.4444 17.9428 46.9515 18.0223 46.4766C18.431 44.0324 19.0662 41.7057 19.8525 39.5138L40.4818 60.1432C37.8493 61.0862 35.4914 61.6487 33.5234 61.9777C33.0478 62.0568 32.5554 61.8951 32.2046 61.5443ZM13.7792 26.8148L21.411 26.2252C18.3276 30.8313 16.026 35.6662 14.589 40.5537L4.96964 39.0638L12.6156 27.4994C12.879 27.101 13.3032 26.8515 13.7792 26.8148ZM55.9909 51.0782C52.2045 54.2365 48.529 56.5209 45.1412 58.1738L21.8254 34.858C23.9907 30.4355 26.6334 26.7529 28.9218 24.0094C33.6992 18.2821 39.6409 13.3413 45.2235 10.4538C56.2351 4.75804 67.8368 4.45132 73.7724 4.77444C74.5581 4.81726 75.1829 5.4421 75.2257 6.22788C75.5493 12.1635 75.242 23.7651 69.5462 34.7768C66.6589 40.3593 61.7181 46.3008 55.9909 51.0782Z" fill="#161314"/>
<path d="M54.8002 36.913C57.8005 36.9127 60.8021 35.7705 63.0863 33.4863C65.2997 31.273 66.5185 28.3302 66.5185 25.2002C66.5185 22.0702 65.2996 19.1274 63.0863 16.9141C58.5173 12.3449 51.0829 12.3452 46.5141 16.9141C44.3007 19.1274 43.0818 22.0702 43.0818 25.2002C43.0818 28.3302 44.3009 31.273 46.5141 33.4863C48.7988 35.771 51.7988 36.9133 54.8002 36.913ZM49.8283 20.2285C51.199 18.8577 52.9994 18.1724 54.7999 18.1724C56.6005 18.1724 58.401 18.8577 59.7716 20.2285C61.0996 21.5564 61.8308 23.3221 61.8308 25.2C61.8308 27.078 61.0996 28.8438 59.7716 30.1718C57.0304 32.9132 52.5696 32.913 49.8282 30.1718C48.5002 28.8438 47.7688 27.0782 47.7688 25.2002C47.7688 23.3222 48.5004 21.5564 49.8283 20.2285Z" fill="#161314"/>
<path d="M2.39079 65.9277C2.99063 65.9277 3.59048 65.699 4.04798 65.2412L11.7 57.5892C12.6153 56.6738 12.6153 55.1899 11.7 54.2746C10.7849 53.3593 9.30079 53.3593 8.38548 54.2746L0.733603 61.9267C-0.181709 62.842 -0.181709 64.3259 0.733603 65.2412C1.1911 65.6988 1.79095 65.9277 2.39079 65.9277Z" fill="#161314"/>
<path d="M18.7126 61.2871C17.7974 60.3718 16.3134 60.3718 15.398 61.2871L0.686484 75.9988C-0.228828 76.9141 -0.228828 78.398 0.686484 79.3133C1.14414 79.771 1.74383 79.9997 2.34367 79.9997C2.94352 79.9997 3.54336 79.771 4.00086 79.3132L18.7124 64.6016C19.6279 63.6863 19.6279 62.2024 18.7126 61.2871Z" fill="#161314"/>
<path d="M22.4108 68.3L14.7587 75.952C13.8434 76.8674 13.8434 78.3513 14.7587 79.2666C15.2164 79.7242 15.8162 79.9531 16.4159 79.9531C17.0156 79.9531 17.6156 79.7244 18.0731 79.2666L25.7252 71.6145C26.6405 70.6992 26.6405 69.2153 25.7252 68.3C24.81 67.3847 23.3259 67.3847 22.4108 68.3Z" fill="#161314"/>
</g>
<defs>
<clipPath id="clip0">
<rect width="80" height="80" fill="white"/>
</clipPath>
</defs>
</svg>
