<svg width="80" height="70" viewBox="0 0 80 70" fill="none" xmlns="http://www.w3.org/2000/svg">
<path d="M77.76 2.23507C76.3253 0.803063 74.3809 -0.000836463 72.3539 2.4641e-06C72.1799 2.4641e-06 72.0131 0.0691028 71.8901 0.192102C71.7671 0.315101 71.698 0.481922 71.698 0.655869V8.73427H8.302V0.655869C8.302 0.481922 8.2329 0.315101 8.1099 0.192102C7.9869 0.0691028 7.82008 2.4641e-06 7.64614 2.4641e-06C6.6418 -0.00080413 5.64717 0.196419 4.71913 0.580387C3.7911 0.964355 2.94787 1.52753 2.2377 2.2377C1.52753 2.94787 0.964355 3.7911 0.580387 4.71913C0.196419 5.64717 -0.00080413 6.6418 2.4641e-06 7.64613V62.1245C-0.000575945 63.1288 0.196802 64.1233 0.580852 65.0513C0.964901 65.9792 1.52809 66.8223 2.23821 67.5325C2.94834 68.2426 3.79147 68.8058 4.7194 69.1898C5.64734 69.5739 6.64187 69.7712 7.64614 69.7707H72.3539C73.3581 69.7712 74.3527 69.5739 75.2806 69.1898C76.2085 68.8058 77.0517 68.2426 77.7618 67.5325C78.4719 66.8223 79.0351 65.9792 79.4191 65.0513C79.8032 64.1233 80.0006 63.1288 80 62.1245V7.64613C80.0003 6.64128 79.8026 5.64622 79.4183 4.71777C79.0339 3.78933 78.4704 2.9457 77.76 2.23507ZM1.31174 7.64613C1.31031 6.07924 1.89021 4.56752 2.93919 3.40356C3.98818 2.2396 5.43166 1.50617 6.99027 1.3452V54.5063C6.55706 54.5474 6.12817 54.6255 5.70827 54.7397C5.63027 54.7608 5.5516 54.7788 5.47454 54.8017C5.08227 54.9182 4.70001 55.0661 4.33147 55.2439C4.26187 55.2773 4.19587 55.3152 4.12654 55.3505C3.76434 55.5366 3.41747 55.7512 3.0892 55.9921L3.0532 56.0164C2.72432 56.2685 2.41662 56.547 2.1332 56.8493C2.0768 56.9076 2.02107 56.9633 1.9672 57.024C1.73007 57.2828 1.51123 57.5578 1.31227 57.8471L1.31174 7.64613ZM76.8372 66.6023C75.6479 67.7909 74.0353 68.4586 72.3539 68.4587H7.64614C5.96615 68.4587 4.35497 67.7913 3.16704 66.6034C1.97911 65.4154 1.31174 63.8043 1.31174 62.1243C1.31174 60.4443 1.97911 58.8331 3.16704 57.6452C4.35497 56.4572 5.96615 55.7899 7.64614 55.7899C7.73227 55.7899 7.81756 55.7729 7.89715 55.74C7.97673 55.707 8.04904 55.6587 8.10994 55.5978C8.17085 55.5369 8.21916 55.4646 8.25211 55.385C8.28507 55.3054 8.30202 55.2201 8.302 55.134V10.046H71.698V55.1343C71.698 55.2204 71.7149 55.3057 71.7479 55.3853C71.7808 55.4649 71.8291 55.5372 71.8901 55.5981C71.951 55.659 72.0233 55.7073 72.1029 55.7402C72.1824 55.7732 72.2677 55.7901 72.3539 55.7901C73.6063 55.7905 74.8306 56.1621 75.872 56.8579C76.9135 57.5537 77.7253 58.5425 78.2051 59.6995C78.6848 60.8564 78.8109 62.1296 78.5675 63.3582C78.324 64.5868 77.7219 65.7157 76.8372 66.6023ZM78.6883 57.8469C78.4893 57.5577 78.2705 57.2827 78.0333 57.0239C77.98 56.9632 77.9237 56.9075 77.8673 56.8492C77.5839 56.5469 77.2762 56.2683 76.9473 56.0163L76.9113 55.992C76.5831 55.751 76.2362 55.5365 75.874 55.3504C75.8047 55.3152 75.7387 55.2773 75.6691 55.2437C75.3005 55.0659 74.9183 54.9181 74.526 54.8016C74.4489 54.7787 74.3703 54.7607 74.2923 54.7396C73.8724 54.6254 73.4435 54.5473 73.0103 54.5061V1.3452C74.5688 1.50628 76.0122 2.23975 77.0612 3.40369C78.1102 4.56762 78.6901 6.07927 78.6888 7.64613L78.6883 57.8469ZM21.3683 18.7759C20.2232 18.7772 19.1254 19.2327 18.3157 20.0425C17.5059 20.8522 17.0504 21.95 17.0491 23.0951V51.8265V51.8333C17.0509 51.9367 17.0779 52.0382 17.1277 52.1288C17.1317 52.1368 17.13 52.1461 17.1343 52.1541L20.7979 58.6208C20.8552 58.7216 20.9381 58.8054 21.0384 58.8637C21.1386 58.922 21.2525 58.9528 21.3684 58.9528C21.4843 58.9528 21.5982 58.922 21.6984 58.8637C21.7987 58.8054 21.8816 58.7216 21.9389 58.6208L25.6025 52.1541C25.6069 52.1461 25.6051 52.1368 25.6091 52.1288C25.659 52.0382 25.686 51.9368 25.6877 51.8333V51.8265V23.0951C25.6863 21.95 25.2308 20.8521 24.4211 20.0424C23.6113 19.2327 22.5135 18.7772 21.3684 18.7759H21.3683ZM18.3607 26.5533H20.7128V51.1749H18.3607V26.5533ZM21.3684 56.9667L18.8313 52.4896H23.9057L21.3684 56.9667ZM24.3764 51.1753H22.0243V26.5533H24.3764V51.1753ZM24.3764 25.242H18.3607V23.0953C18.3607 22.2976 18.6776 21.5325 19.2417 20.9685C19.8057 20.4044 20.5708 20.0875 21.3685 20.0875C22.1663 20.0875 22.9313 20.4044 23.4954 20.9685C24.0595 21.5325 24.3764 22.2976 24.3764 23.0953V25.242ZM32.4143 19.0327C32.3308 18.924 32.2155 18.8441 32.0844 18.8043C31.9532 18.7645 31.813 18.7668 31.6832 18.8108C31.5534 18.8548 31.4407 18.9384 31.3608 19.0497C31.281 19.161 31.238 19.2946 31.2379 19.4316V59.0732C31.2378 59.1593 31.2548 59.2446 31.2877 59.3242C31.3207 59.4038 31.369 59.4761 31.4299 59.537C31.4908 59.598 31.5631 59.6463 31.6427 59.6792C31.7223 59.7122 31.8076 59.7291 31.8937 59.7291H62.2949C62.4173 59.729 62.5372 59.6947 62.6411 59.6301C62.745 59.5655 62.8288 59.4731 62.8829 59.3634C62.9371 59.2537 62.9595 59.131 62.9476 59.0093C62.9358 58.8875 62.8901 58.7714 62.8157 58.6743L32.4143 19.0327ZM56.1416 58.4173V57.7881C56.1428 57.7012 56.1268 57.615 56.0944 57.5343C56.062 57.4537 56.0139 57.3803 55.9529 57.3184C55.8919 57.2565 55.8192 57.2074 55.739 57.1739C55.6589 57.1403 55.5728 57.123 55.4859 57.123C55.399 57.123 55.313 57.1403 55.2328 57.1739C55.1527 57.2074 55.08 57.2565 55.019 57.3184C54.958 57.3803 54.9099 57.4537 54.8775 57.5343C54.8451 57.615 54.829 57.7012 54.8303 57.7881V58.4173H52.36V57.2103C52.36 57.0364 52.2909 56.8696 52.1679 56.7466C52.045 56.6236 51.8782 56.5545 51.7043 56.5545C51.5303 56.5545 51.3636 56.6236 51.2406 56.7466C51.1176 56.8696 51.0485 57.0364 51.0485 57.2103V58.4173H48.5791V57.7881C48.5803 57.7012 48.5643 57.6149 48.5319 57.5343C48.4995 57.4536 48.4513 57.3802 48.3903 57.3183C48.3293 57.2564 48.2566 57.2073 48.1764 57.1737C48.0962 57.1402 48.0102 57.1229 47.9233 57.1229C47.8363 57.1229 47.7503 57.1402 47.6701 57.1737C47.5899 57.2073 47.5172 57.2564 47.4562 57.3183C47.3952 57.3802 47.3471 57.4536 47.3147 57.5343C47.2823 57.6149 47.2662 57.7012 47.2675 57.7881V58.4173H44.7976V57.2103C44.7976 57.0364 44.7285 56.8696 44.6055 56.7466C44.4826 56.6236 44.3158 56.5545 44.1419 56.5545C43.968 56.5545 43.8012 56.6236 43.6782 56.7466C43.5552 56.8696 43.4861 57.0364 43.4861 57.2103V58.4173H41.0157V57.7881C41.0157 57.6142 40.9466 57.4474 40.8237 57.3245C40.7007 57.2015 40.5339 57.1324 40.36 57.1324C40.1861 57.1324 40.0193 57.2015 39.8963 57.3245C39.7734 57.4474 39.7043 57.6142 39.7043 57.7881V58.4173H37.2341V57.2103C37.2341 57.1241 37.2172 57.0389 37.1842 56.9593C37.1513 56.8798 37.103 56.8075 37.0421 56.7466C36.9812 56.6857 36.9089 56.6374 36.8293 56.6044C36.7498 56.5715 36.6645 56.5545 36.5784 56.5545C36.4923 56.5545 36.407 56.5715 36.3275 56.6044C36.2479 56.6374 36.1756 56.6857 36.1147 56.7466C36.0538 56.8075 36.0055 56.8798 35.9726 56.9593C35.9396 57.0389 35.9227 57.1241 35.9227 57.2103V58.4173H32.5493V55.044H33.7563C33.8431 55.0452 33.9294 55.0292 34.01 54.9968C34.0906 54.9644 34.164 54.9163 34.2259 54.8553C34.2878 54.7943 34.3369 54.7217 34.3704 54.6415C34.4039 54.5614 34.4212 54.4753 34.4212 54.3885C34.4212 54.3016 34.4039 54.2156 34.3704 54.1354C34.3369 54.0553 34.2878 53.9826 34.2259 53.9216C34.164 53.8606 34.0906 53.8125 34.01 53.7801C33.9294 53.7477 33.8431 53.7317 33.7563 53.7329H32.5493V51.2629H33.1788C33.3527 51.2629 33.5196 51.1938 33.6426 51.0708C33.7656 50.9478 33.8347 50.781 33.8347 50.6071C33.8347 50.4331 33.7656 50.2663 33.6426 50.1433C33.5196 50.0203 33.3527 49.9512 33.1788 49.9512H32.5493V47.4813H33.7563C33.9302 47.4813 34.097 47.4122 34.22 47.2892C34.343 47.1662 34.4121 46.9994 34.4121 46.8255C34.4121 46.6515 34.343 46.4847 34.22 46.3617C34.097 46.2387 33.9302 46.1696 33.7563 46.1696H32.5493V43.6999H33.1788C33.3527 43.6999 33.5196 43.6308 33.6426 43.5078C33.7656 43.3848 33.8347 43.2179 33.8347 43.044C33.8347 42.8701 33.7656 42.7032 33.6426 42.5802C33.5196 42.4572 33.3527 42.3881 33.1788 42.3881H32.5493V39.9183H33.7563C33.9302 39.9183 34.097 39.8492 34.22 39.7262C34.343 39.6032 34.4121 39.4363 34.4121 39.2624C34.4121 39.0885 34.343 38.9216 34.22 38.7986C34.097 38.6756 33.9302 38.6065 33.7563 38.6065H32.5493V36.1367H33.1788C33.3527 36.1367 33.5196 36.0676 33.6426 35.9446C33.7656 35.8216 33.8347 35.6548 33.8347 35.4808C33.8347 35.3069 33.7656 35.14 33.6426 35.017C33.5196 34.894 33.3527 34.8249 33.1788 34.8249H32.5493V32.3551H33.7563C33.9302 32.3551 34.097 32.286 34.22 32.163C34.343 32.04 34.4121 31.8731 34.4121 31.6992C34.4121 31.5253 34.343 31.3584 34.22 31.2354C34.097 31.1124 33.9302 31.0433 33.7563 31.0433H32.5493V21.3653L60.9655 58.4187L56.1416 58.4173ZM37.4577 54.1653H51.0168C51.1391 54.1653 51.259 54.1311 51.3628 54.0666C51.4667 54.002 51.5505 53.9097 51.6047 53.8C51.6588 53.6904 51.6813 53.5678 51.6694 53.4461C51.6576 53.3243 51.6119 53.2083 51.5376 53.1112L37.9783 35.4307C37.8949 35.3218 37.7796 35.2419 37.6485 35.202C37.5173 35.1621 37.377 35.1643 37.2472 35.2084C37.1174 35.2524 37.0047 35.336 36.9248 35.4474C36.845 35.5588 36.8021 35.6924 36.8021 35.8295V53.5095C36.8021 53.5956 36.819 53.6809 36.8519 53.7605C36.8848 53.8401 36.9331 53.9124 36.994 53.9733C37.0549 54.0342 37.1272 54.0825 37.2067 54.1155C37.2863 54.1484 37.3716 54.1654 37.4577 54.1653ZM38.1136 37.762L49.6869 52.8543H38.1136V37.762Z" fill="white"/>
</svg>
