<svg width="80" height="49" viewBox="0 0 80 49" fill="none" xmlns="http://www.w3.org/2000/svg">
<path d="M60 48.8889H20V46.6667C20 41.3623 22.1071 36.2753 25.8579 32.5245C29.6086 28.7738 34.6957 26.6667 40 26.6667C45.3043 26.6667 50.3914 28.7738 54.1421 32.5245C57.8929 36.2753 60 41.3623 60 46.6667V48.8889ZM24.6 44.4445H55.4C54.8716 40.7365 53.0232 37.3437 50.1941 34.8891C47.3651 32.4346 43.7454 31.0833 40 31.0833C36.2546 31.0833 32.6349 32.4346 29.8059 34.8891C26.9768 37.3437 25.1284 40.7365 24.6 44.4445ZM40 22.2222C37.8024 22.2222 35.6542 21.5706 33.827 20.3497C31.9998 19.1288 30.5756 17.3934 29.7347 15.3632C28.8937 13.3329 28.6737 11.0988 29.1024 8.94345C29.5311 6.7881 30.5893 4.80829 32.1433 3.25437C33.6972 1.70046 35.677 0.642227 37.8323 0.213502C39.9877 -0.215223 42.2218 0.00481427 44.252 0.845788C46.2823 1.68676 48.0177 3.1109 49.2386 4.93811C50.4595 6.76533 51.1111 8.91355 51.1111 11.1111C51.1111 12.5702 50.8237 14.0151 50.2653 15.3632C49.7069 16.7112 48.8885 17.9361 47.8567 18.9679C46.825 19.9996 45.6001 20.8181 44.252 21.3764C42.904 21.9348 41.4591 22.2222 40 22.2222ZM40 4.44445C38.6815 4.44445 37.3925 4.83544 36.2962 5.56799C35.1999 6.30053 34.3454 7.34172 33.8408 8.55989C33.3362 9.77807 33.2042 11.1185 33.4614 12.4117C33.7187 13.7049 34.3536 14.8928 35.286 15.8252C36.2183 16.7575 37.4062 17.3925 38.6994 17.6497C39.9926 17.9069 41.333 17.7749 42.5512 17.2703C43.7694 16.7657 44.8106 15.9112 45.5431 14.8149C46.2757 13.7186 46.6667 12.4297 46.6667 11.1111C46.6667 9.34301 45.9643 7.64731 44.714 6.39707C43.4638 5.14683 41.7681 4.44445 40 4.44445ZM4.66667 44.4445H15.6667C15.6667 45.1778 15.6667 45.9111 15.6667 46.6667V48.8889H2.91749e-07V46.6667C-0.000477332 44.2003 0.585492 41.7692 1.70956 39.574C2.83363 37.3787 4.46358 35.4822 6.46493 34.0408C8.46628 32.5995 10.7817 31.6547 13.22 31.2844C15.6584 30.9141 18.1499 31.1289 20.4889 31.9111C19.5677 33.1487 18.7572 34.4649 18.0667 35.8444C17.2446 35.646 16.4012 35.549 15.5556 35.5556C12.9941 35.555 10.5111 36.4395 8.52688 38.0593C6.54263 39.6791 5.17896 41.9348 4.66667 44.4445ZM15.5556 26.6667C13.7975 26.6667 12.0789 26.1453 10.6172 25.1686C9.15538 24.1919 8.01607 22.8036 7.34329 21.1794C6.67052 19.5552 6.49449 17.7679 6.83747 16.0436C7.18045 14.3194 8.02703 12.7355 9.27016 11.4924C10.5133 10.2493 12.0971 9.40267 13.8214 9.05969C15.5457 8.71671 17.333 8.89274 18.9572 9.56552C20.5814 10.2383 21.9697 11.3776 22.9464 12.8394C23.9231 14.3012 24.4444 16.0197 24.4444 17.7778C24.4444 20.1353 23.5079 22.3962 21.841 24.0632C20.174 25.7302 17.913 26.6667 15.5556 26.6667ZM15.5556 13.3333C14.6765 13.3333 13.8172 13.594 13.0864 14.0824C12.3555 14.5707 11.7858 15.2649 11.4494 16.077C11.113 16.8891 11.025 17.7827 11.1965 18.6449C11.368 19.507 11.7913 20.2989 12.4129 20.9205C13.0344 21.542 13.8264 21.9653 14.6885 22.1368C15.5506 22.3083 16.4443 22.2203 17.2564 21.8839C18.0685 21.5475 18.7626 20.9779 19.251 20.247C19.7393 19.5161 20 18.6568 20 17.7778C20 16.599 19.5317 15.4686 18.6983 14.6351C17.8648 13.8016 16.7343 13.3333 15.5556 13.3333ZM80 46.6667V48.8889H64.4445V46.6667C64.4445 45.9111 64.4445 45.1778 64.3333 44.4445H75.3333C74.8211 41.9348 73.4574 39.6791 71.4731 38.0593C69.4889 36.4395 67.0059 35.555 64.4445 35.5556C63.5988 35.549 62.7554 35.646 61.9333 35.8444C61.2428 34.4649 60.4323 33.1487 59.5111 31.9111C61.8501 31.1289 64.3416 30.9141 66.78 31.2844C69.2183 31.6547 71.5337 32.5995 73.5351 34.0408C75.5364 35.4822 77.1664 37.3787 78.2904 39.574C79.4145 41.7692 80.0005 44.2003 80 46.6667ZM64.4445 26.6667C62.6864 26.6667 60.9678 26.1453 59.506 25.1686C58.0443 24.1919 56.905 22.8036 56.2322 21.1794C55.5594 19.5552 55.3834 17.7679 55.7264 16.0436C56.0693 14.3194 56.9159 12.7355 58.1591 11.4924C59.4022 10.2493 60.986 9.40267 62.7103 9.05969C64.4346 8.71671 66.2218 8.89274 67.8461 9.56552C69.4703 10.2383 70.8586 11.3776 71.8353 12.8394C72.812 14.3012 73.3333 16.0197 73.3333 17.7778C73.3333 20.1353 72.3968 22.3962 70.7298 24.0632C69.0629 25.7302 66.8019 26.6667 64.4445 26.6667ZM64.4445 13.3333C63.5654 13.3333 62.7061 13.594 61.9752 14.0824C61.2444 14.5707 60.6747 15.2649 60.3383 16.077C60.0019 16.8891 59.9139 17.7827 60.0854 18.6449C60.2569 19.507 60.6802 20.2989 61.3018 20.9205C61.9233 21.542 62.7152 21.9653 63.5774 22.1368C64.4395 22.3083 65.3331 22.2203 66.1453 21.8839C66.9574 21.5475 67.6515 20.9779 68.1399 20.247C68.6282 19.5161 68.8889 18.6568 68.8889 17.7778C68.8889 16.599 68.4206 15.4686 67.5871 14.6351C66.7536 13.8016 65.6232 13.3333 64.4445 13.3333Z" fill="white"/>
</svg>
